<svg width="14" height="25" viewBox="0 0 14 25" fill="none" xmlns="http://www.w3.org/2000/svg">
<path d="M0.512404 23.9713C0.184312 23.643 0 23.1979 0 22.7337C0 22.2696 0.184312 21.8244 0.512404 21.4962L9.77565 12.2313L0.512404 2.96643C0.19361 2.6363 0.0172108 2.19414 0.0211982 1.73519C0.0251857 1.27624 0.209241 0.83722 0.533722 0.512682C0.858204 0.188143 1.29715 0.00405432 1.75602 6.61695e-05C2.21489 -0.00392198 2.65696 0.172509 2.98704 0.491359L13.4876 10.9938C13.8157 11.322 14 11.7672 14 12.2313C14 12.6955 13.8157 13.1406 13.4876 13.4688L2.98704 23.9713C2.65884 24.2994 2.21378 24.4837 1.74972 24.4837C1.28566 24.4837 0.840595 24.2994 0.512404 23.9713Z" fill="#0D0D0D"/>
</svg>
