<svg width="22" height="22" viewBox="0 0 22 22" fill="none" xmlns="http://www.w3.org/2000/svg">
<path d="M11 2.2C8.66609 2.2 6.42778 3.12714 4.77746 4.77746C3.12714 6.42778 2.2 8.66609 2.2 11C2.2 13.3339 3.12714 15.5722 4.77746 17.2225C6.42778 18.8729 8.66609 19.8 11 19.8C13.3339 19.8 15.5722 18.8729 17.2225 17.2225C18.8729 15.5722 19.8 13.3339 19.8 11C19.8 8.66609 18.8729 6.42778 17.2225 4.77746C15.5722 3.12714 13.3339 2.2 11 2.2ZM0 11C0 4.9247 4.9247 0 11 0C17.0753 0 22 4.9247 22 11C22 17.0753 17.0753 22 11 22C4.9247 22 0 17.0753 0 11Z" fill="#0D0D0D"/>
<path d="M11.0016 8.80039C11.2933 8.80039 11.5731 8.91628 11.7794 9.12257C11.9857 9.32886 12.1016 9.60865 12.1016 9.90039V16.5004C12.1016 16.7921 11.9857 17.0719 11.7794 17.2782C11.5731 17.4845 11.2933 17.6004 11.0016 17.6004C10.7098 17.6004 10.43 17.4845 10.2237 17.2782C10.0175 17.0719 9.90156 16.7921 9.90156 16.5004V9.90039C9.90156 9.60865 10.0175 9.32886 10.2237 9.12257C10.43 8.91628 10.7098 8.80039 11.0016 8.80039ZM12.6516 6.05039C12.6516 6.488 12.4777 6.90768 12.1683 7.21712C11.8589 7.52655 11.4392 7.70039 11.0016 7.70039C10.564 7.70039 10.1443 7.52655 9.83484 7.21712C9.5254 6.90768 9.35156 6.488 9.35156 6.05039C9.35156 5.61278 9.5254 5.1931 9.83484 4.88366C10.1443 4.57423 10.564 4.40039 11.0016 4.40039C11.4392 4.40039 11.8589 4.57423 12.1683 4.88366C12.4777 5.1931 12.6516 5.61278 12.6516 6.05039Z" fill="#0D0D0D"/>
</svg>
