<svg width="28" height="22" viewBox="0 0 28 22" fill="none" xmlns="http://www.w3.org/2000/svg">
<path d="M25.7005 12.3332H23.0339C22.6561 12.3332 22.3394 12.2055 22.0839 11.9499C21.8283 11.6944 21.7005 11.3777 21.7005 10.9999C21.7005 10.6221 21.8283 10.3055 22.0839 10.0499C22.3394 9.79436 22.6561 9.66658 23.0339 9.66658H25.7005C26.0783 9.66658 26.395 9.79436 26.6505 10.0499C26.9061 10.3055 27.0339 10.6221 27.0339 10.9999C27.0339 11.3777 26.9061 11.6944 26.6505 11.9499C26.395 12.2055 26.0783 12.3332 25.7005 12.3332ZM19.8339 17.3999C20.0561 17.0888 20.345 16.911 20.7005 16.8666C21.0561 16.8221 21.3894 16.911 21.7005 17.1332L23.8339 18.7332C24.145 18.9555 24.3227 19.2444 24.3672 19.5999C24.4116 19.9555 24.3227 20.2888 24.1005 20.5999C23.8783 20.911 23.5894 21.0888 23.2339 21.1332C22.8783 21.1777 22.545 21.0888 22.2339 20.8666L20.1005 19.2666C19.7894 19.0444 19.6116 18.7555 19.5672 18.3999C19.5227 18.0444 19.6116 17.711 19.8339 17.3999ZM23.8339 3.26658L21.7005 4.86658C21.3894 5.0888 21.0561 5.17769 20.7005 5.13325C20.345 5.0888 20.0561 4.91102 19.8339 4.59991C19.6116 4.2888 19.5227 3.95547 19.5672 3.59991C19.6116 3.24436 19.7894 2.95547 20.1005 2.73325L22.2339 1.13325C22.545 0.911024 22.8783 0.822135 23.2339 0.86658C23.5894 0.911024 23.8783 1.0888 24.1005 1.39991C24.3227 1.71102 24.4116 2.04436 24.3672 2.39991C24.3227 2.75547 24.145 3.04436 23.8339 3.26658ZM4.36719 14.9999H3.03385C2.30052 14.9999 1.67274 14.7388 1.15052 14.2166C0.628299 13.6944 0.367188 13.0666 0.367188 12.3332V9.66658C0.367188 8.93325 0.628299 8.30547 1.15052 7.78325C1.67274 7.26102 2.30052 6.99991 3.03385 6.99991H8.36719L13.0005 4.19991C13.445 3.93325 13.895 3.93325 14.3505 4.19991C14.8061 4.46658 15.0339 4.85547 15.0339 5.36658V16.6332C15.0339 17.1444 14.8061 17.5332 14.3505 17.7999C13.895 18.0666 13.445 18.0666 13.0005 17.7999L8.36719 14.9999H7.03385V18.9999C7.03385 19.3777 6.90608 19.6944 6.65052 19.9499C6.39496 20.2055 6.0783 20.3332 5.70052 20.3332C5.32274 20.3332 5.00608 20.2055 4.75052 19.9499C4.49497 19.6944 4.36719 19.3777 4.36719 18.9999V14.9999ZM16.3672 15.4666V6.53325C16.9672 7.06658 17.4505 7.71658 17.8172 8.48325C18.1839 9.24991 18.3672 10.0888 18.3672 10.9999C18.3672 11.911 18.1839 12.7499 17.8172 13.5166C17.4505 14.2832 16.9672 14.9332 16.3672 15.4666Z" fill="#322A42"/>
</svg>
