<svg width="25" height="18" viewBox="0 0 25 18" fill="none" xmlns="http://www.w3.org/2000/svg">
<path d="M16.0392 8.63679C16.0392 9.61849 15.6492 10.56 14.9551 11.2541C14.2609 11.9483 13.3194 12.3383 12.3377 12.3383C11.356 12.3383 10.4145 11.9483 9.72037 11.2541C9.02621 10.56 8.63623 9.61849 8.63623 8.63679C8.63623 7.6551 9.02621 6.71361 9.72037 6.01944C10.4145 5.32528 11.356 4.9353 12.3377 4.9353C13.3194 4.9353 14.2609 5.32528 14.9551 6.01944C15.6492 6.71361 16.0392 7.6551 16.0392 8.63679Z" fill="#0D0D0D"/>
<path d="M24.5452 8.08529C21.8826 2.75885 17.1545 0 12.3376 0C7.522 0 2.79273 2.75885 0.130127 8.08529C0.0445504 8.25655 0 8.44536 0 8.63681C0 8.82826 0.0445504 9.01708 0.130127 9.18833C2.79273 14.5148 7.52077 17.2736 12.3376 17.2736C17.1533 17.2736 21.8826 14.5148 24.5452 9.18833C24.6307 9.01708 24.6753 8.82826 24.6753 8.63681C24.6753 8.44536 24.6307 8.25655 24.5452 8.08529ZM12.3376 14.806C8.6744 14.806 4.93219 12.8072 2.6274 8.63681C4.93219 4.46646 8.67317 2.46766 12.3376 2.46766C16.0009 2.46766 19.7431 4.46646 22.0479 8.63681C19.7431 12.8072 16.0009 14.806 12.3376 14.806Z" fill="#0D0D0D"/>
</svg>
