<svg width="17" height="18" viewBox="0 0 17 18" fill="none" xmlns="http://www.w3.org/2000/svg">
<path d="M0.898438 16V7C0.898438 6.68333 0.969271 6.38333 1.11094 6.1C1.2526 5.81667 1.44844 5.58333 1.69844 5.4L7.69844 0.9C8.04844 0.633333 8.44844 0.5 8.89844 0.5C9.34844 0.5 9.74844 0.633333 10.0984 0.9L16.0984 5.4C16.3484 5.58333 16.5443 5.81667 16.6859 6.1C16.8276 6.38333 16.8984 6.68333 16.8984 7V16C16.8984 16.55 16.7026 17.0208 16.3109 17.4125C15.9193 17.8042 15.4484 18 14.8984 18H11.8984C11.6151 18 11.3776 17.9042 11.1859 17.7125C10.9943 17.5208 10.8984 17.2833 10.8984 17V12C10.8984 11.7167 10.8026 11.4792 10.6109 11.2875C10.4193 11.0958 10.1818 11 9.89844 11H7.89844C7.6151 11 7.3776 11.0958 7.18594 11.2875C6.99427 11.4792 6.89844 11.7167 6.89844 12V17C6.89844 17.2833 6.8026 17.5208 6.61094 17.7125C6.41927 17.9042 6.18177 18 5.89844 18H2.89844C2.34844 18 1.8776 17.8042 1.48594 17.4125C1.09427 17.0208 0.898438 16.55 0.898438 16Z" fill="#322A42"/>
</svg>
