<svg width="25" height="20" viewBox="0 0 25 20" fill="none" xmlns="http://www.w3.org/2000/svg">
<path d="M0 2.46753C0 1.8131 0.259971 1.18547 0.722722 0.722722C1.18547 0.259971 1.8131 0 2.46753 0H22.2078C22.8622 0 23.4898 0.259971 23.9526 0.722722C24.4153 1.18547 24.6753 1.8131 24.6753 2.46753V17.2727C24.6753 17.9271 24.4153 18.5548 23.9526 19.0175C23.4898 19.4803 22.8622 19.7402 22.2078 19.7402H2.46753C1.8131 19.7402 1.18547 19.4803 0.722722 19.0175C0.259971 18.5548 0 17.9271 0 17.2727V2.46753ZM4.34162 2.46753L12.3376 9.46421L20.3337 2.46753H4.34162ZM22.2078 4.1072L13.1507 12.0329C12.9257 12.23 12.6368 12.3387 12.3376 12.3387C12.0385 12.3387 11.7496 12.23 11.5246 12.0329L2.46753 4.1072V17.2727H22.2078V4.1072Z" fill="#0D0D0D"/>
</svg>
