<svg width="21" height="19" viewBox="0 0 21 19" fill="none" xmlns="http://www.w3.org/2000/svg">
<path d="M6.09766 9C6.38099 9 6.61849 8.90417 6.81016 8.7125C7.00182 8.52083 7.09766 8.28333 7.09766 8C7.09766 7.71667 7.00182 7.47917 6.81016 7.2875C6.61849 7.09583 6.38099 7 6.09766 7C5.81432 7 5.57682 7.09583 5.38516 7.2875C5.19349 7.47917 5.09766 7.71667 5.09766 8C5.09766 8.28333 5.19349 8.52083 5.38516 8.7125C5.57682 8.90417 5.81432 9 6.09766 9ZM10.0977 9C10.381 9 10.6185 8.90417 10.8102 8.7125C11.0018 8.52083 11.0977 8.28333 11.0977 8C11.0977 7.71667 11.0018 7.47917 10.8102 7.2875C10.6185 7.09583 10.381 7 10.0977 7C9.81432 7 9.57682 7.09583 9.38516 7.2875C9.19349 7.47917 9.09766 7.71667 9.09766 8C9.09766 8.28333 9.19349 8.52083 9.38516 8.7125C9.57682 8.90417 9.81432 9 10.0977 9ZM14.0977 9C14.381 9 14.6185 8.90417 14.8102 8.7125C15.0018 8.52083 15.0977 8.28333 15.0977 8C15.0977 7.71667 15.0018 7.47917 14.8102 7.2875C14.6185 7.09583 14.381 7 14.0977 7C13.8143 7 13.5768 7.09583 13.3852 7.2875C13.1935 7.47917 13.0977 7.71667 13.0977 8C13.0977 8.28333 13.1935 8.52083 13.3852 8.7125C13.5768 8.90417 13.8143 9 14.0977 9ZM4.09766 16L1.79766 18.3C1.48099 18.6167 1.11849 18.6875 0.710156 18.5125C0.301823 18.3375 0.0976562 18.025 0.0976562 17.575V2C0.0976562 1.45 0.29349 0.979167 0.685156 0.5875C1.07682 0.195833 1.54766 0 2.09766 0H18.0977C18.6477 0 19.1185 0.195833 19.5102 0.5875C19.9018 0.979167 20.0977 1.45 20.0977 2V14C20.0977 14.55 19.9018 15.0208 19.5102 15.4125C19.1185 15.8042 18.6477 16 18.0977 16H4.09766Z" fill="#322A42"/>
</svg>
