<svg width="23" height="29" viewBox="0 0 23 29" fill="none" xmlns="http://www.w3.org/2000/svg">
<path d="M11.5 2.9C9.131 2.9 7.1875 4.8604 7.1875 7.25V11.6H20.125C20.8875 11.6 21.6188 11.9055 22.1579 12.4494C22.6971 12.9932 23 13.7309 23 14.5V26.1C23 26.8691 22.6971 27.6068 22.1579 28.1506C21.6188 28.6945 20.8875 29 20.125 29H2.875C2.1125 29 1.38123 28.6945 0.842068 28.1506C0.302901 27.6068 0 26.8691 0 26.1V14.5C0 13.7309 0.302901 12.9932 0.842068 12.4494C1.38123 11.9055 2.1125 11.6 2.875 11.6H4.3125V7.25C4.3125 3.2596 7.544 0 11.5 0C15.456 0 18.6875 3.2596 18.6875 7.25C18.6875 7.63456 18.5361 8.00338 18.2665 8.2753C17.9969 8.54723 17.6312 8.7 17.25 8.7C16.8688 8.7 16.5031 8.54723 16.2335 8.2753C15.964 8.00338 15.8125 7.63456 15.8125 7.25C15.8125 4.8604 13.869 2.9 11.5 2.9ZM2.875 14.5V26.1H20.125V14.5H2.875Z" fill="#0D0D0D"/>
</svg>
