<svg width="25" height="24" viewBox="0 0 25 24" fill="none" xmlns="http://www.w3.org/2000/svg">
<path d="M8.5 18C7.95 18 7.47917 17.8042 7.0875 17.4125C6.69583 17.0208 6.5 16.55 6.5 16V4C6.5 3.45 6.69583 2.97917 7.0875 2.5875C7.47917 2.19583 7.95 2 8.5 2H20.5C21.05 2 21.5208 2.19583 21.9125 2.5875C22.3042 2.97917 22.5 3.45 22.5 4V16C22.5 16.55 22.3042 17.0208 21.9125 17.4125C21.5208 17.8042 21.05 18 20.5 18H8.5ZM4.5 22C3.95 22 3.47917 21.8042 3.0875 21.4125C2.69583 21.0208 2.5 20.55 2.5 20V7C2.5 6.71667 2.59583 6.47917 2.7875 6.2875C2.97917 6.09583 3.21667 6 3.5 6C3.78333 6 4.02083 6.09583 4.2125 6.2875C4.40417 6.47917 4.5 6.71667 4.5 7V20H17.5C17.7833 20 18.0208 20.0958 18.2125 20.2875C18.4042 20.4792 18.5 20.7167 18.5 21C18.5 21.2833 18.4042 21.5208 18.2125 21.7125C18.0208 21.9042 17.7833 22 17.5 22H4.5ZM13.5 10.125C13.5 10.325 13.5833 10.4708 13.75 10.5625C13.9167 10.6542 14.0833 10.65 14.25 10.55L15.475 9.8C15.6417 9.7 15.8167 9.65 16 9.65C16.1833 9.65 16.3583 9.7 16.525 9.8L17.75 10.55C17.9167 10.65 18.0833 10.6542 18.25 10.5625C18.4167 10.4708 18.5 10.325 18.5 10.125V4H13.5V10.125Z" fill="#322A42"/>
</svg>
