<svg width="26" height="23" viewBox="0 0 26 23" fill="none" xmlns="http://www.w3.org/2000/svg">
<path d="M12.542 1.42819C12.8349 1.7212 12.9995 2.11857 12.9995 2.53289C12.9995 2.94721 12.8349 3.34458 12.542 3.63759L5.83411 10.3455H23.9375C24.3519 10.3455 24.7493 10.5101 25.0423 10.8031C25.3354 11.0962 25.5 11.4936 25.5 11.908C25.5 12.3224 25.3354 12.7199 25.0423 13.0129C24.7493 13.3059 24.3519 13.4705 23.9375 13.4705H5.83411L12.542 20.1784C12.8266 20.4731 12.9841 20.8678 12.9806 21.2775C12.977 21.6872 12.8127 22.0791 12.523 22.3688C12.2333 22.6585 11.8414 22.8228 11.4317 22.8264C11.022 22.83 10.6273 22.6725 10.3326 22.3878L0.957485 13.0127C0.664558 12.7197 0.5 12.3223 0.5 11.908C0.5 11.4937 0.664558 11.0963 0.957485 10.8033L10.3326 1.42819C10.6256 1.13526 11.023 0.970703 11.4373 0.970703C11.8516 0.970703 12.249 1.13526 12.542 1.42819Z" fill="#7D7D7D"/>
</svg>
