<svg width="17" height="16" viewBox="0 0 17 16" fill="none" xmlns="http://www.w3.org/2000/svg">
<path d="M8.29688 8C7.19688 8 6.25521 7.60833 5.47188 6.825C4.68854 6.04167 4.29688 5.1 4.29688 4C4.29688 2.9 4.68854 1.95833 5.47188 1.175C6.25521 0.391667 7.19688 0 8.29688 0C9.39688 0 10.3385 0.391667 11.1219 1.175C11.9052 1.95833 12.2969 2.9 12.2969 4C12.2969 5.1 11.9052 6.04167 11.1219 6.825C10.3385 7.60833 9.39688 8 8.29688 8ZM0.296875 14V13.2C0.296875 12.6333 0.442708 12.1125 0.734375 11.6375C1.02604 11.1625 1.41354 10.8 1.89688 10.55C2.93021 10.0333 3.98021 9.64583 5.04688 9.3875C6.11354 9.12917 7.19688 9 8.29688 9C9.39688 9 10.4802 9.12917 11.5469 9.3875C12.6135 9.64583 13.6635 10.0333 14.6969 10.55C15.1802 10.8 15.5677 11.1625 15.8594 11.6375C16.151 12.1125 16.2969 12.6333 16.2969 13.2V14C16.2969 14.55 16.101 15.0208 15.7094 15.4125C15.3177 15.8042 14.8469 16 14.2969 16H2.29688C1.74688 16 1.27604 15.8042 0.884375 15.4125C0.492708 15.0208 0.296875 14.55 0.296875 14Z" fill="#322A42"/>
</svg>
